<svg width="378" height="512" viewBox="0 0 378 512" fill="none" xmlns="http://www.w3.org/2000/svg">
<path d="M377.852 66.9087H278.513V47.0407C278.513 25.0977 260.721 7.30469 238.777 7.30469H139.438C117.494 7.30469 99.702 25.0977 99.702 47.0407V66.9087H0.363037V86.7767H20.833L40.72 464.266C40.72 486.21 58.512 504.002 80.456 504.002H299.002C320.946 504.002 338.738 486.21 338.738 464.266L358.276 86.7767H377.853V66.9087H377.852ZM119.57 47.0407C119.57 36.0787 128.496 27.1727 139.438 27.1727H238.777C249.739 27.1727 258.645 36.0787 258.645 47.0407V66.9087H119.57V47.0407ZM318.908 463.237L318.869 463.742V464.266C318.869 475.209 309.963 484.134 299.001 484.134H80.455C69.513 484.134 60.587 475.209 60.587 464.266V463.742L60.568 463.219L40.72 86.7767H338.389L318.908 463.237Z" fill="#FF3333"/>
<path d="M199.041 126.512H179.173V444.397H199.041V126.512Z" fill="#FF3333"/>
<path d="M139.884 443.756L119.551 126.492L99.7219 127.752L120.056 445.016L139.884 443.756Z" fill="#FF3333"/>
<path d="M278.649 127.132L258.82 125.891L238.777 443.776L258.606 445.017L278.649 127.132Z" fill="#FF3333"/>
</svg>
