<svg width="414" height="41" viewBox="0 0 414 41" fill="none" xmlns="http://www.w3.org/2000/svg">
<path d="M13.1875 0.3125C14.6458 0.3125 16.0625 0.5625 17.4375 1.0625C18.8542 1.5625 20.2083 2.29167 21.5 3.25C21.7083 3.45833 21.9375 3.66667 22.1875 3.875C22.3958 3.66667 22.625 3.45833 22.875 3.25C24.1667 2.29167 25.5 1.5625 26.875 1.0625C28.2917 0.5625 29.7083 0.3125 31.125 0.3125C32.5833 0.3125 34 0.5625 35.375 1.0625C36.7917 1.5625 38.125 2.3125 39.375 3.3125C40.6667 4.27083 41.7917 5.5625 42.75 7.1875C43.75 8.8125 44.25 10.75 44.25 13V35.5625C44 38.0625 42.625 39.4167 40.125 39.625C38.9583 39.625 37.9375 39.25 37.0625 38.5C36.2292 37.7083 35.8125 36.7292 35.8125 35.5625V13.5C35.8125 12.5 35.625 11.6667 35.25 11C34.875 10.2917 34.4583 9.75 34 9.375C33.5417 8.95833 33.0625 8.66667 32.5625 8.5C32.0625 8.29167 31.5625 8.1875 31.0625 8.1875C30.5625 8.1875 30.0625 8.29167 29.5625 8.5C29.1042 8.66667 28.6458 8.95833 28.1875 9.375C27.7292 9.75 27.3125 10.2917 26.9375 11C26.5625 11.6667 26.3542 12.5 26.3125 13.5V35.5625C26.0625 38.0625 24.6875 39.4167 22.1875 39.625C21.0208 39.625 20 39.25 19.125 38.5C18.2917 37.7083 17.875 36.7292 17.875 35.5625V13.5C17.875 12.5 17.6875 11.6667 17.3125 11C16.9375 10.2917 16.5208 9.75 16.0625 9.375C15.6042 8.95833 15.125 8.66667 14.625 8.5C14.125 8.29167 13.625 8.1875 13.125 8.1875C12.625 8.1875 12.125 8.29167 11.625 8.5C11.1667 8.66667 10.7083 8.95833 10.25 9.375C9.79167 9.75 9.375 10.2917 9 11C8.625 11.6667 8.41667 12.5 8.375 13.5V35.5625C8.16667 38.0625 6.8125 39.4167 4.3125 39.625C3.14583 39.625 2.125 39.25 1.25 38.5C0.416667 37.7083 0 36.7292 0 35.5625V13C0.0833333 10.75 0.604167 8.8125 1.5625 7.1875C2.52083 5.5625 3.64583 4.27083 4.9375 3.3125C6.22917 2.3125 7.5625 1.5625 8.9375 1.0625C10.3542 0.5625 11.7708 0.3125 13.1875 0.3125ZM72.0625 40.3125C69.8958 40.3125 67.75 40.0625 65.625 39.5625C63.5417 39.0625 61.5417 38.3333 59.625 37.375C57.7083 36.375 56.0208 35.0625 54.5625 33.4375C53.1042 31.8125 52.3125 29.875 52.1875 27.625V25V5.0625C52.1875 3.89583 52.6042 2.9375 53.4375 2.1875C54.3125 1.39583 55.3333 1 56.5 1C59 1.20833 60.3542 2.5625 60.5625 5.0625V25.6875C60.6458 26.9792 61.125 28.0625 62 28.9375C62.9167 29.7708 63.9167 30.4375 65 30.9375C66.125 31.4375 67.2708 31.8125 68.4375 32.0625C69.6458 32.3125 70.8542 32.4375 72.0625 32.4375C73.2708 32.4375 74.4583 32.3125 75.625 32.0625C76.8333 31.8125 77.9792 31.4375 79.0625 30.9375C80.1875 30.4375 81.1875 29.7708 82.0625 28.9375C82.9792 28.0625 83.4792 26.9792 83.5625 25.6875V5.0625C83.5625 3.89583 83.9792 2.9375 84.8125 2.1875C85.6875 1.39583 86.7083 1 87.875 1C90.375 1.20833 91.75 2.5625 92 5.0625V25V27.625C91.875 29.875 91.0625 31.8125 89.5625 33.4375C88.1042 35.0625 86.4167 36.375 84.5 37.375C82.5833 38.3333 80.5625 39.0625 78.4375 39.5625C76.3542 40.0625 74.2292 40.3125 72.0625 40.3125ZM140.75 6.1875C140.75 7.35417 140.333 8.33333 139.5 9.125C138.708 9.95833 137.729 10.375 136.562 10.375H111.562C110.771 10.4167 110.104 10.6042 109.562 10.9375C109.062 11.2292 108.688 11.5833 108.438 12C108.188 12.375 108.062 12.7708 108.062 13.1875C108.062 13.6042 108.188 14.0208 108.438 14.4375C108.688 14.8125 109.062 15.1667 109.562 15.5C110.104 15.7917 110.771 15.9583 111.562 16H129.312C132.229 16.0833 134.625 16.7708 136.5 18.0625C138.417 19.3125 139.771 20.7708 140.562 22.4375C141.396 24.0625 141.812 25.7292 141.812 27.4375C141.812 29.1042 141.396 30.7708 140.562 32.4375C139.729 34.0625 138.375 35.5208 136.5 36.8125C134.625 38.0625 132.229 38.6875 129.312 38.6875H128.938C128.688 38.7292 128.438 38.75 128.188 38.75H104.562C103.396 38.75 102.396 38.3542 101.562 37.5625C100.771 36.7292 100.375 35.7292 100.375 34.5625C100.375 33.3958 100.792 32.4167 101.625 31.625C102.417 30.7917 103.396 30.375 104.562 30.375H129.688C130.479 30.4167 131.125 30.2708 131.625 29.9375C132.167 29.6042 132.562 29.2292 132.812 28.8125C133.062 28.3542 133.188 27.8958 133.188 27.4375C133.188 27.1458 133.062 26.75 132.812 26.25C132.562 25.7083 132.167 25.2708 131.625 24.9375C131.125 24.6042 130.479 24.4167 129.688 24.375H111.938C109.021 24.2917 106.604 23.625 104.688 22.375C102.812 21.125 101.458 19.7083 100.625 18.125C99.8333 16.5 99.4375 14.8542 99.4375 13.1875C99.4375 11.5625 99.8542 9.95833 100.688 8.375C101.521 6.75 102.875 5.3125 104.75 4.0625C106.625 2.8125 109.021 2.14583 111.938 2.0625H112.312C112.562 2.02083 112.812 2 113.062 2H136.562C137.729 2 138.708 2.41667 139.5 3.25C140.333 4.04167 140.75 5.02083 140.75 6.1875ZM147.5 34.6875C147.5 33.5208 147.896 32.5417 148.688 31.75C149.521 30.9167 150.521 30.5 151.688 30.5H163.688V10.375H151.688C150.521 10.375 149.542 9.95833 148.75 9.125C147.917 8.33333 147.5 7.35417 147.5 6.1875C147.5 5.02083 147.896 4.04167 148.688 3.25C149.521 2.41667 150.521 2 151.688 2H184.062C185.229 2 186.229 2.39583 187.062 3.1875C187.854 4.02083 188.25 5.02083 188.25 6.1875C188.25 7.35417 187.833 8.35417 187 9.1875C186.208 9.97917 185.229 10.375 184.062 10.375H172.125V30.5H184.062C185.229 30.5 186.229 30.8958 187.062 31.6875C187.854 32.5208 188.25 33.5208 188.25 34.6875C188.25 35.8542 187.833 36.8542 187 37.6875C186.208 38.4792 185.229 38.875 184.062 38.875H151.688C150.521 38.875 149.542 38.4583 148.75 37.625C147.917 36.8333 147.5 35.8542 147.5 34.6875ZM208.938 10.375C207.354 10.4583 206.021 11.0625 204.938 12.1875C203.896 13.3125 203.146 14.6042 202.688 16.0625C202.229 17.4792 202 18.9375 202 20.4375C202 21.9375 202.208 23.4167 202.625 24.875C203.083 26.3333 203.854 27.625 204.938 28.75C206.021 29.8333 207.354 30.4167 208.938 30.5H229.562C232.188 30.75 233.625 32.1875 233.875 34.8125C233.833 35.9792 233.396 36.9583 232.562 37.75C231.729 38.5 230.729 38.875 229.562 38.875H209.625H206.75C203.833 38.7083 201.438 37.6042 199.562 35.5625C197.688 33.4792 196.333 31.125 195.5 28.5C194.708 25.875 194.312 23.1875 194.312 20.4375C194.312 18.3958 194.542 16.375 195 14.375C195.458 12.375 196.167 10.4792 197.125 8.6875C198.125 6.85417 199.438 5.29167 201.062 4C202.729 2.70833 204.625 2.04167 206.75 2H207.938H229.562C232.188 2.25 233.625 3.6875 233.875 6.3125C233.875 7.47917 233.438 8.45833 232.562 9.25C231.729 10 230.729 10.375 229.562 10.375H208.938ZM285.688 29.1875C285.688 28.0208 286.083 27.0417 286.875 26.25C287.708 25.4167 288.708 25 289.875 25H299.438L297.812 20.375C297.146 18.6667 296.479 17.0625 295.812 15.5625C295.188 14.0208 294.458 12.625 293.625 11.375C292.875 10.125 292.021 9.45833 291.062 9.375C290.062 9.45833 289.167 10.125 288.375 11.375C287.583 12.625 286.854 14.0208 286.188 15.5625C285.562 17.0625 284.917 18.6667 284.25 20.375L278.312 36.625C277.896 37.5 277.354 38.2292 276.688 38.8125C276.062 39.3542 275.104 39.625 273.812 39.625C272.604 39.625 271.604 39.2083 270.812 38.375C270.062 37.5417 269.729 36.5417 269.812 35.375C269.854 34.8333 269.979 34.3333 270.188 33.875L277.062 16.125C278.979 11.4583 280.896 7.6875 282.812 4.8125C284.688 1.97917 287.438 0.541667 291.062 0.5C294.646 0.541667 297.375 1.97917 299.25 4.8125C301.167 7.60417 303.083 11.375 305 16.125L311.875 33.875C312.083 34.3333 312.208 34.8333 312.25 35.375C312.333 36.5417 311.979 37.5417 311.188 38.375C310.438 39.2083 309.458 39.625 308.25 39.625C306.875 39.625 305.854 39.3542 305.188 38.8125C304.562 38.2292 304.042 37.5 303.625 36.625L302.438 33.375H289.875C288.708 33.375 287.729 32.9583 286.938 32.125C286.104 31.3333 285.688 30.3542 285.688 29.1875ZM326.938 35.5625C326.688 38.0625 325.312 39.4167 322.812 39.625C321.646 39.625 320.625 39.25 319.75 38.5C318.917 37.7083 318.5 36.7292 318.5 35.5625V6.0625C318.542 4.89583 318.979 3.9375 319.812 3.1875C320.646 2.39583 321.646 2 322.812 2H349.062C352.729 2.125 355.5 2.9375 357.375 4.4375C359.25 5.89583 360.604 7.5625 361.438 9.4375C362.271 11.3125 362.688 13.2083 362.688 15.125C362.688 17.125 362.271 19.0625 361.438 20.9375C360.646 22.8125 359.292 24.5 357.375 26C355.5 27.4583 353.104 28.1667 350.188 28.125H334.438C333.271 28.125 332.292 27.7083 331.5 26.875C330.667 26.0833 330.25 25.1042 330.25 23.9375C330.25 22.7708 330.646 21.7917 331.438 21C332.271 20.1667 333.271 19.75 334.438 19.75H350.562C351.354 19.75 352 19.5 352.5 19C353.042 18.4583 353.438 17.8542 353.688 17.1875C353.938 16.4792 354.062 15.7708 354.062 15.0625C354.062 14.3958 353.938 13.7292 353.688 13.0625C353.438 12.3542 353.042 11.75 352.5 11.25C352 10.7083 351.354 10.4167 350.562 10.375H328.562C327.479 10.4167 326.938 10.9583 326.938 12V35.5625ZM377.75 35.5625C377.5 38.0625 376.125 39.4167 373.625 39.625C372.458 39.625 371.438 39.25 370.562 38.5C369.729 37.7083 369.312 36.7292 369.312 35.5625V6.0625C369.354 4.89583 369.792 3.9375 370.625 3.1875C371.458 2.39583 372.458 2 373.625 2H399.875C403.542 2.125 406.312 2.9375 408.188 4.4375C410.062 5.89583 411.417 7.5625 412.25 9.4375C413.083 11.3125 413.5 13.2083 413.5 15.125C413.5 17.125 413.083 19.0625 412.25 20.9375C411.458 22.8125 410.104 24.5 408.188 26C406.312 27.4583 403.917 28.1667 401 28.125H385.25C384.083 28.125 383.104 27.7083 382.312 26.875C381.479 26.0833 381.062 25.1042 381.062 23.9375C381.062 22.7708 381.458 21.7917 382.25 21C383.083 20.1667 384.083 19.75 385.25 19.75H401.375C402.167 19.75 402.812 19.5 403.312 19C403.854 18.4583 404.25 17.8542 404.5 17.1875C404.75 16.4792 404.875 15.7708 404.875 15.0625C404.875 14.3958 404.75 13.7292 404.5 13.0625C404.25 12.3542 403.854 11.75 403.312 11.25C402.812 10.7083 402.167 10.4167 401.375 10.375H379.375C378.292 10.4167 377.75 10.9583 377.75 12V35.5625Z" fill="white"/>
</svg>
